:version 1.10
:name ASF
:units
  mass 1
  length 1
  angle deg
:documentation
  ASF file generated by Kaydara
:root
  axis xyz
  order  tx ty tz rx ry rz
  position 0 0 0
  orientation 0 0 0
:bonedata
  begin
    id 1
    name RightUpLegDummy
    direction -0.718183 -0.695806 0.00816078
    length 4.904
    axis 0 0 0 xyz
  end
  begin
    id 2
    name RightUpLeg
    direction 3.53373e-006 -0.995788 0.0916898
    length 17.4976
    axis -3.49089 -0.000906625 0.000286804 xyz
    dof rx ry rz
  end
  begin
    id 3
    name RightLeg
    direction 0.00371092 -0.995096 -0.0988419
    length 16.5821
    axis 3.68512 0.0193738 -0.131023 xyz
    dof rx ry rz
  end
  begin
    id 4
    name RightFoot
    direction 0.00079151 -0.46099 0.887405
    length 3.77069
    axis 4.81691e-005 -0.120479 -0.188788 xyz
    dof rx ry rz
  end
  begin
    id 5
    name RightToes
    direction 0 0 0
    length 0
    axis 0 0 0 xyz
    dof rx ry rz
  end
  begin
    id 6
    name SpineDummy
    direction 8.3039e-015 1 4.57515e-016
    length 4.6813
    axis 0 0 0 xyz
  end
  begin
    id 7
    name Spine
    direction -3.15643e-008 0.999988 0.00495137
    length 10.1015
    axis -0.001389 0.000121418 2.40972e-006 xyz
    dof rx ry rz
  end
  begin
    id 8
    name Spine1
    direction 0 0 0
    length 0
    axis -0.001389 0.000121451 1.30017e-006 xyz
    dof rx ry rz
  end
  begin
    id 9
    name HEadDummy
    direction -1.99912e-008 0.999999 0.00127422
    length 3.43865
    axis -0.001389 0.000121451 1.30017e-006 xyz
  end
  begin
    id 10
    name HEad
    direction 0 0 0
    length 0
    axis 0 0 0 xyz
    dof rx ry rz
  end
  begin
    id 11
    name LeftShoulder1Dummy
    direction 0.998891 -0.0402509 -0.0244456
    length 3.5433
    axis -0.001389 0.000121451 1.30017e-006 xyz
  end
  begin
    id 12
    name LeftShoulder1
    direction 0.99951 -0.000327763 0.0313091
    length 4.05031
    axis -0.001389 0.000121451 1.30017e-006 xyz
    dof rx ry rz
  end
  begin
    id 13
    name LeftArm
    direction 0.998561 -0.00100056 -0.0536182
    length 10.3537
    axis -23.1894 0.134784 0.967509 xyz
    dof rx ry rz
  end
  begin
    id 14
    name LeftForeArm
    direction 0.998903 0.00866432 0.046012
    length 8.70632
    axis -9.91835 -0.06569 -0.177794 xyz
    dof rx ry rz
  end
  begin
    id 15
    name LeftHand
    direction 0 0 0
    length 0
    axis 0 0 0 xyz
    dof rx ry rz
  end
  begin
    id 16
    name RightShoulderDummy
    direction -0.998891 -0.0402509 -0.0244414
    length 3.5433
    axis -0.001389 0.000121451 1.30017e-006 xyz
  end
  begin
    id 17
    name RightShoulder
    direction -0.99951 -0.000327807 0.0313133
    length 4.05031
    axis 0.215806 0.000203643 -0.0068026 xyz
    dof rx ry rz
  end
  begin
    id 18
    name RightArm
    direction -0.998573 -0.000999564 -0.053403
    length 10.3947
    axis -23.2009 -0.134239 -0.964101 xyz
    dof rx ry rz
  end
  begin
    id 19
    name RightForeArm
    direction -0.998898 0.00868028 0.0461306
    length 8.68355
    axis -9.92322 0.0658061 0.178868 xyz
    dof rx ry rz
  end
  begin
    id 20
    name RightHand
    direction 0 0 0
    length 0
    axis 0 0 0 xyz
    dof rx ry rz
  end
  begin
    id 21
    name LeftUpLegDummy
    direction 0.718183 -0.695806 0.00816078
    length 4.904
    axis 0 0 0 xyz
  end
  begin
    id 22
    name LeftUpLeg
    direction -6.81752e-006 -0.995793 0.0916337
    length 17.4976
    axis -3.48766 0.00143442 -0.000524262 xyz
    dof rx ry rz
  end
  begin
    id 23
    name LeftLeg
    direction -0.00601358 -0.995091 -0.0987824
    length 16.5821
    axis 3.68178 -0.00654042 -0.000285133 xyz
    dof rx ry rz
  end
  begin
    id 24
    name LeftFoot
    direction -0.00417578 -0.460984 0.887399
    length 3.77069
    axis 1.87233e-006 4.66016e-005 -8.6538e-006 xyz
    dof rx ry rz
  end
  begin
    id 25
    name LeftToes
    direction 0 0 0
    length 0
    axis 0 0 0 xyz
    dof rx ry rz
  end
:hierarchy
  begin
    root RightUpLegDummy SpineDummy LeftUpLegDummy
    RightUpLegDummy RightUpLeg
    RightUpLeg RightLeg
    RightLeg RightFoot
    RightFoot RightToes
    SpineDummy Spine
    Spine Spine1
    Spine1 HEadDummy LeftShoulder1Dummy RightShoulderDummy
    HEadDummy HEad
    LeftShoulder1Dummy LeftShoulder1
    LeftShoulder1 LeftArm
    LeftArm LeftForeArm
    LeftForeArm LeftHand
    RightShoulderDummy RightShoulder
    RightShoulder RightArm
    RightArm RightForeArm
    RightForeArm RightHand
    LeftUpLegDummy LeftUpLeg
    LeftUpLeg LeftLeg
    LeftLeg LeftFoot
    LeftFoot LeftToes
  end

:SAMPLES-PER-SECOND 30
:FULLY-SPECIFIED
:DEGREES
1
root  72.729 40.3817 -0.0155244 -28.5581 -87.9117 26.2759
RightUpLeg  3.46493 -8.90872 -6.73946
RightLeg  5.4722 -3.69759 3.35366
RightFoot  -4.65008 -0.0686987 0.547074
RightToes  0.000481922 0.542163 -0.142578
Spine  -1.50559 0.0890238 -0.548605
Spine1  5.9017 0.329751 -0.598095
HEad  0.618259 0.963201 1.20178
LeftShoulder1  1.14748 -3.39469 -9.1926
LeftArm  -14.6454 6.10133 -2.3847
LeftForeArm  29.8862 -2.2907 -2.58933
LeftHand  -0.25398 0.0180481 5.50724
RightShoulder  0.530757 0.436976 5.60489
RightArm  -20.6786 -2.47459 2.02417
RightForeArm  12.7417 3.83574 2.47197
RightHand  -1.44731 7.72026 -13.201
LeftUpLeg  4.49419 4.32852 1.98123
LeftLeg  3.44398 9.52298 -2.79197
LeftFoot  -4.98984 -0.00426111 0.396423
LeftToes  1.06245e-005 4.65869e-005 -8.65513e-006
2
root  72.7372 40.3821 -0.0120528 -28.7112 -87.9205 26.4712
RightUpLeg  3.4005 -8.89954 -6.73371
RightLeg  5.47098 -3.69575 3.34502
RightFoot  -4.6322 -0.0693725 0.557532
RightToes  0.000481922 0.542163 -0.142578
Spine  -1.50818 0.12108 -0.660139
Spine1  5.83595 0.316943 -0.393955
HEad  0.721874 0.882382 1.10068
LeftShoulder1  1.16988 -3.453 -9.39669
LeftArm  -14.6258 6.0859 -2.21122
LeftForeArm  29.8178 -2.24573 -2.59212
LeftHand  -0.25398 0.0180481 5.50724
RightShoulder  0.530729 0.448724 5.5286
RightArm  -20.6352 -2.51143 2.00664
RightForeArm  12.7336 3.82237 2.47586
RightHand  -1.43347 7.63035 -13.1648
LeftUpLeg  4.44274 4.31872 1.96695
LeftLeg  3.43047 9.54899 -2.79533
LeftFoot  -4.97657 -0.00428974 0.396868
LeftToes  1.06245e-005 4.65869e-005 -8.65513e-006
3
root  72.7534 40.3836 -0.00626215 -29.245 -87.9809 27.072
RightUpLeg  3.29515 -8.87229 -6.70658
RightLeg  5.4527 -3.67849 3.33345
RightFoot  -4.58531 -0.0689595 0.551121
RightToes  0.000481922 0.542163 -0.142578
Spine  -1.53031 0.178552 -0.720396
Spine1  5.77725 0.340671 -0.241454
HEad  0.908212 0.754589 1.07614
LeftShoulder1  1.17386 -3.43952 -9.4961
LeftArm  -14.6637 6.01191 -2.13685
LeftForeArm  29.8307 -2.15664 -2.57313
LeftHand  -0.25398 0.0180481 5.50724
RightShoulder  0.530723 0.471432 5.51258
RightArm  -20.5629 -2.53712 1.92997
RightForeArm  12.7411 3.77309 2.48352
RightHand  -1.41857 7.54831 -13.1113
LeftUpLeg  4.35784 4.31805 1.95954
LeftLeg  3.41355 9.62079 -2.80611
LeftFoot  -4.9428 -0.00652797 0.431653
LeftToes  1.06245e-005 4.65869e-005 -8.65513e-006
4
root  72.7683 40.3861 -0.00131779 -29.7551 -88.0559 27.6259
RightUpLeg  3.24109 -8.84752 -6.67687
RightLeg  5.38281 -3.64218 3.33448
RightFoot  -4.51345 -0.0684113 0.542612
RightToes  0.000481922 0.542163 -0.142578
Spine  -1.51816 0.219198 -0.681688
Spine1  5.70874 0.380785 -0.242089
HEad  1.07146 0.691968 1.15616
LeftShoulder1  1.15268 -3.34608 -9.40716
LeftArm  -14.7337 5.92883 -2.21192
LeftForeArm  29.9916 -2.10593 -2.5453
LeftHand  -0.25398 0.0180481 5.50724
RightShoulder  0.530737 0.49622 5.55439
RightArm  -20.5341 -2.53001 1.85614
RightForeArm  12.8865 3.68706 2.47181
RightHand  -1.42929 7.6956 -13.0669
LeftUpLeg  4.30703 4.32866 1.96942
LeftLeg  3.38563 9.68816 -2.82159
LeftFoot  -4.91002 -0.00864794 0.4646
LeftToes  1.06245e-005 4.65869e-005 -8.65513e-006
5
root  72.777 40.3887 0.00107878 -29.6698 -88.0846 27.5394
RightUpLeg  3.27069 -8.84104 -6.66404
RightLeg  5.28516 -3.62461 3.34811
RightFoot  -4.44281 -0.0690973 0.55326
RightToes  0.000481922 0.542163 -0.142578
Spine  -1.44039 0.2255 -0.631662
Spine1  5.59406 0.392854 -0.273777
HEad  1.16593 0.694908 1.20321
LeftShoulder1  1.139 -3.2976 -9.3164
LeftArm  -14.7708 5.90352 -2.24746
LeftForeArm  30.169 -2.12734 -2.53125
LeftHand  -0.25398 0.0180481 5.50724
RightShoulder  0.530732 0.50419 5.54132
RightArm  -20.5727 -2.51362 1.86547
RightForeArm  13.0706 3.60176 2.44112
RightHand  -1.45166 7.91581 -13.0566
LeftUpLeg  4.31474 4.33509 1.98554
LeftLeg  3.35025 9.70189 -2.83183
LeftFoot  -4.89513 -0.00698327 0.438729
LeftToes  1.06245e-005 4.65869e-005 -8.65513e-006
6
root  72.7825 40.3904 4.56352e-005 -29.0473 -88.0785 26.8949
RightUpLeg  3.31955 -8.83297 -6.64737
RightLeg  5.21823 -3.64159 3.35274
RightFoot  -4.39909 -0.0697434 0.563288
RightToes  0.000481922 0.542163 -0.142578
Spine  -1.37575 0.221805 -0.622168
Spine1  5.51272 0.382645 -0.250205
HEad  1.21152 0.685529 1.16342
LeftShoulder1  1.14644 -3.34774 -9.30175
LeftArm  -14.7649 5.9366 -2.18904
LeftForeArm  30.2201 -2.17791 -2.5335
LeftHand  -0.25398 0.0180481 5.50724
RightShoulder  0.530705 0.504767 5.46691
RightArm  -20.6147 -2.51207 1.91239
RightForeArm  13.0683 3.55873 2.42195
RightHand  -1.45515 7.91337 -13.0891
LeftUpLeg  4.33748 4.34459 2.0102
LeftLeg  3.33365 9.67176 -2.83552
LeftFoot  -4.88794 -0.00339966 0.383035
LeftToes  1.06245e-005 4.65869e-005 -8.65513e-006
7
root  72.7883 40.3909 -0.00387466 -28.4487 -88.09 26.2941
RightUpLeg  3.31525 -8.80393 -6.60456
RightLeg  5.20519 -3.67194 3.34068
RightFoot  -4.38272 -0.0688707 0.549743
RightToes  0.000481922 0.542163 -0.142578
Spine  -1.37903 0.228713 -0.649037
Spine1  5.50343 0.371058 -0.172068
HEad  1.26103 0.675454 1.11392
LeftShoulder1  1.15859 -3.41993 -9.30419
LeftArm  -14.7333 5.99218 -2.13671
LeftForeArm  30.1561 -2.21089 -2.54485
LeftHand  -0.25398 0.0180481 5.50724
RightShoulder  0.53068 0.523102 5.39755
RightArm  -20.5967 -2.51759 1.9139
RightForeArm  12.9063 3.56211 2.43314
RightHand  -1.44745 7.76588 -13.1594
LeftUpLeg  4.32296 4.37287 2.05009
LeftLeg  3.34944 9.64189 -2.84308
LeftFoot  -4.87771 -0.00294109 0.375909
LeftToes  1.06245e-005 4.65869e-005 -8.65513e-006
